{
  "accessors": [
    {
      "bufferView": 2,
      "componentType": 5126,
      "count": 707,
      "max": [
        2895.05322265625,
        3629.8251953125,
        3550.661376953125
      ],
      "min": [
        -2905.374755859375,
        16.0010986328125,
        -3292.873046875
      ],
      "type": "VEC3"
    },
    {
      "bufferView": 2,
      "byteOffset": 8484,
      "componentType": 5126,
      "count": 707,
      "max": [
        1.0,
        0.9999995827674866,
        1.0
      ],
      "min": [
        -1.0,
        -1.0,
        -1.0
      ],
      "type": "VEC3"
    },
    {
      "bufferView": 1,
      "componentType": 5126,
      "count": 707,
      "max": [
        0.9967799782752991,
        0.9984099864959717
      ],
      "min": [
        0.003809999907389283,
        0.0023900000378489494
      ],
      "type": "VEC2"
    },
    {
      "bufferView": 0,
      "componentType": 5125,
      "count": 1650,
      "type": "SCALAR"
    }
  ],
  "asset": {
    "extras": {
      "author": "Duane's Mind (https://sketchfab.com/duanesmind)",
      "license": "CC-BY-4.0 (http://creativecommons.org/licenses/by/4.0/)",
      "source": "https://sketchfab.com/3d-models/low-poly-spaceship-110-b8f3d810d55c431eb4f4533ba9592c77",
      "title": "Low Poly Spaceship 1/10"
    },
    "generator": "Sketchfab-12.68.0",
    "version": "2.0"
  },
  "bufferViews": [
    {
      "buffer": 0,
      "byteLength": 6600,
      "name": "floatBufferViews",
      "target": 34963
    },
    {
      "buffer": 0,
      "byteLength": 5656,
      "byteOffset": 6600,
      "byteStride": 8,
      "name": "floatBufferViews",
      "target": 34962
    },
    {
      "buffer": 0,
      "byteLength": 16968,
      "byteOffset": 12256,
      "byteStride": 12,
      "name": "floatBufferViews",
      "target": 34962
    }
  ],
  "buffers": [
    {
      "byteLength": 29224,
      "uri": "scene.bin"
    }
  ],
  "extensionsRequired": [
    "KHR_materials_pbrSpecularGlossiness"
  ],
  "extensionsUsed": [
    "KHR_materials_pbrSpecularGlossiness"
  ],
  "images": [
    {
      "uri": "textures/Spaceship1_Material_diffuse.png"
    },
    {
      "uri": "textures/Spaceship1_Material_specularGlossiness.png"
    },
    {
      "uri": "textures/Spaceship1_Material_emissive.png"
    }
  ],
  "materials": [
    {
      "doubleSided": true,
      "emissiveFactor": [
        1.0,
        1.0,
        1.0
      ],
      "emissiveTexture": {
        "index": 2
      },
      "extensions": {
        "KHR_materials_pbrSpecularGlossiness": {
          "diffuseFactor": [
            1.0,
            1.0,
            1.0,
            1.0
          ],
          "diffuseTexture": {
            "index": 0
          },
          "glossinessFactor": 0.2926136364,
          "specularFactor": [
            1.0,
            1.0,
            1.0
          ],
          "specularGlossinessTexture": {
            "index": 1
          }
        }
      },
      "name": "Spaceship1_Material"
    }
  ],
  "meshes": [
    {
      "name": "Spaceship1_Spaceship1_Material_0",
      "primitives": [
        {
          "attributes": {
            "NORMAL": 1,
            "POSITION": 0,
            "TEXCOORD_0": 2
          },
          "indices": 3,
          "material": 0,
          "mode": 4
        }
      ]
    }
  ],
  "nodes": [
    {
      "children": [
        1
      ],
      "matrix": [
        0.19021999835968018,
        0.0,
        0.0,
        0.0,
        0.0,
        4.223732438461529e-17,
        -0.19021999835968018,
        0.0,
        0.0,
        0.19021999835968018,
        4.223732438461529e-17,
        0.0,
        0.0,
        0.0,
        0.0,
        1.0
      ],
      "name": "Sketchfab_model"
    },
    {
      "children": [
        2
      ],
      "matrix": [
        1.0,
        0.0,
        0.0,
        0.0,
        0.0,
        0.0,
        1.0,
        0.0,
        0.0,
        -1.0,
        0.0,
        0.0,
        0.0,
        0.0,
        0.0,
        1.0
      ],
      "name": "3e98bef331114e5db51998596b52b35c.fbx"
    },
    {
      "children": [
        3
      ],
      "name": "RootNode"
    },
    {
      "children": [
        4
      ],
      "matrix": [
        0.019743578508496284,
        0.0,
        0.0,
        0.0,
        0.0,
        0.019743578508496284,
        0.0,
        0.0,
        0.0,
        0.0,
        0.019743578508496284,
        0.0,
        0.0,
        -0.1036553680896759,
        -0.04385435953736305,
        1.0
      ],
      "name": "Spaceship1"
    },
    {
      "mesh": 0,
      "name": "Spaceship1_Spaceship1_Material_0"
    }
  ],
  "samplers": [
    {
      "magFilter": 9729,
      "minFilter": 9987,
      "wrapS": 10497,
      "wrapT": 10497
    }
  ],
  "scene": 0,
  "scenes": [
    {
      "name": "Sketchfab_Scene",
      "nodes": [
        0
      ]
    }
  ],
  "textures": [
    {
      "sampler": 0,
      "source": 0
    },
    {
      "sampler": 0,
      "source": 1
    },
    {
      "sampler": 0,
      "source": 2
    }
  ]
}
